<svg width="16" height="16" viewBox="0 0 16 16" fill="none" xmlns="http://www.w3.org/2000/svg">
<path fill-rule="evenodd" clip-rule="evenodd" d="M2.33325 6.87852C2.33325 3.81194 4.89584 1.33334 7.99555 1.33334C11.104 1.33334 13.6666 3.81194 13.6666 6.87852C13.6666 8.4238 13.1046 9.85843 12.1796 11.0744C11.1591 12.4157 9.90136 13.5843 8.48561 14.5016C8.16159 14.7136 7.86917 14.7296 7.51355 14.5016C6.08974 13.5843 4.83198 12.4157 3.82025 11.0744C2.89457 9.85843 2.33325 8.4238 2.33325 6.87852ZM6.12937 7.05118C6.12937 8.07848 6.96766 8.88646 7.99551 8.88646C9.02404 8.88646 9.8704 8.07848 9.8704 7.05118C9.8704 6.03188 9.02404 5.18457 7.99551 5.18457C6.96766 5.18457 6.12937 6.03188 6.12937 7.05118Z" fill="#2C2D5B"/>
</svg>
