<svg width="20" height="15" viewBox="0 0 20 15" fill="none" xmlns="http://www.w3.org/2000/svg">
<path fill-rule="evenodd" clip-rule="evenodd" d="M4.11304 0H9.9051C12.3271 0 14.0181 1.66904 14.0181 4.06091V10.9391C14.0181 13.331 12.3271 15 9.9051 15H4.11304C1.69102 15 0 13.331 0 10.9391V4.06091C0 1.66904 1.69102 0 4.11304 0ZM17.958 2.87898C18.397 2.65563 18.912 2.67898 19.331 2.94294C19.75 3.20589 20 3.66274 20 4.16223V11.8384C20 12.3389 19.75 12.7947 19.331 13.0577C19.102 13.2008 18.846 13.2739 18.588 13.2739C18.373 13.2739 18.158 13.2231 17.957 13.1206L16.476 12.3734C15.928 12.0952 15.588 11.5369 15.588 10.9165V5.08305C15.588 4.46173 15.928 3.90335 16.476 3.62721L17.958 2.87898Z" fill="#200E32"/>
</svg>
